<?xml version="1.0" encoding="utf-8"?>
<!-- Generator: Adobe Illustrator 12.0.0, SVG Export Plug-In . SVG Version: 6.00 Build 51448)  -->
<!DOCTYPE svg PUBLIC "-//W3C//DTD SVG 1.1//EN" "http://www.w3.org/Graphics/SVG/1.1/DTD/svg11.dtd" [
	<!ENTITY ns_svg "http://www.w3.org/2000/svg">
	<!ENTITY ns_xlink "http://www.w3.org/1999/xlink">
]>
<svg  version="1.1" id="Layer_1" xmlns="&ns_svg;" xmlns:xlink="&ns_xlink;" width="320.805" height="287.958"
	 viewBox="0 0 320.805 287.958" overflow="visible" enable-background="new 0 0 320.805 287.958" xml:space="preserve">
<circle fill="#FFFFFF" stroke="#FFFFFF" cx="229.469" cy="39.734" r="8.425"/>
<circle fill="#FFFFFF" stroke="#FFFFFF" cx="197.306" cy="121.416" r="8.424"/>
<circle fill="#FFFFFF" stroke="#FFFFFF" cx="120.384" cy="71.113" r="8.424"/>
<circle fill="#FFFFFF" stroke="#FFFFFF" cx="138.577" cy="24.91" r="8.424"/>
<g>
	<g>
		<path fill="none" d="M145.847,73.124c-4.404-22.701-23.133-45.323-47.184-47.169C79.387,24.082,67.14,43.084,50.19,44.986
			C29.29,47.24,12.536,24.442,1.583,8.693"/>
		<path fill="#727171" d="M147.347,70.525c-3.297-15.959-12.497-30.49-26.025-39.693c-6.724-4.574-14.492-6.998-22.557-7.577
			c-7.554-0.542-14.702,2.832-21.041,6.544c-6.621,3.878-12.752,8.544-20.021,11.198c-7.023,2.564-14.439,1.655-21.183-1.249
			C21.963,33.482,11.824,18.638,3.083,6.095c0.229,0.328-3.696,4.198-3,5.196C8.832,23.845,18.415,37.2,32.334,44.384
			c14.973,7.729,27.727-0.196,40.399-8.131c6.673-4.179,13.656-7.601,21.658-7.83c7.991-0.229,15.998,2.787,22.738,6.842
			c14.276,8.587,23.899,24.39,27.218,40.457C144.12,74.624,147.696,72.212,147.347,70.525L147.347,70.525z"/>
	</g>
</g>
<line fill="#FFFFFF" stroke="#8E8E8E" stroke-width="10" x1="214.895" y1="106.422" x2="256.149" y2="122.667"/>
<line fill="#FFFFFF" stroke="#8E8E8E" stroke-width="10" x1="236.229" y1="53.755" x2="277.483" y2="70"/>
<linearGradient id="XMLID_3_" gradientUnits="userSpaceOnUse" x1="120.2007" y1="-41.5239" x2="212.8672" y2="108.4761">
	<stop  offset="0" style="stop-color:#FFFFFF"/>
	<stop  offset="1" style="stop-color:#000000"/>
</linearGradient>
<path fill="url(#XMLID_3_)" stroke="#FFFFFF" d="M220.643,112.974c-5.383,13.671-20.829,20.39-34.499,15.007L120.86,83.214
	c-13.67-5.383-20.388-20.829-15.005-34.499L118.2,17.363c5.383-13.67,20.829-20.389,34.499-15.006l78.278,11.763
	c13.671,5.383,20.39,20.829,15.007,34.499L220.643,112.974z"/>
<circle fill="#FFFFFF" stroke="#FFFFFF" cx="120.332" cy="61.563" r="8.424"/>
<circle fill="#FFFFFF" stroke="#FFFFFF" cx="138.525" cy="15.36" r="8.424"/>
<circle fill="#FFFFFF" stroke="#FFFFFF" cx="127.701" cy="152.015" r="8.425"/>
<circle fill="#FFFFFF" stroke="#FFFFFF" cx="99.376" cy="235.106" r="8.424"/>
<circle fill="#FFFFFF" stroke="#FFFFFF" cx="190.574" cy="246.521" r="8.424"/>
<circle fill="#FFFFFF" stroke="#FFFFFF" cx="206.596" cy="199.521" r="8.425"/>
<g>
	<g>
		<path fill="none" d="M167.621,235.225c18.046-14.46,46.963-19.59,66.497-5.437c15.907,11.045,12.95,33.458,24.645,45.875
			c14.478,15.241,42.002,8.697,60.543,3.775"/>
		<path fill="#727171" d="M166.244,237.77c13.438-10.497,30.857-15.65,47.805-13.024c7.965,1.234,15.693,4.803,21.701,10.174
			c5.736,5.128,8.483,12.772,10.771,19.891c2.165,6.739,3.985,13.591,7.771,19.65c3.873,6.2,10.271,9.943,17.168,11.855
			c14.979,4.153,31.795-0.431,46.347-4.279c1.606-0.425,2.013-4.935,3-5.195c-14.887,3.937-31.005,7.978-46.347,4.278
			c-16.403-3.954-20.757-18.489-25.33-32.725c-2.224-6.92-5.129-13.506-10.379-18.672c-6.082-5.985-14.868-9.115-23.128-10.395
			c-16.356-2.535-33.772,3.313-46.624,13.352C167.647,233.736,166.975,237.199,166.244,237.77L166.244,237.77z"/>
	</g>
</g>
<linearGradient id="XMLID_4_" gradientUnits="userSpaceOnUse" x1="247.8423" y1="163.1694" x2="101.8418" y2="215.1694">
	<stop  offset="0" style="stop-color:#FFFFFF"/>
	<stop  offset="1" style="stop-color:#000000"/>
</linearGradient>
<path fill="url(#XMLID_4_)" stroke="#FFFFFF" d="M87.043,213.571c-4.741,13.906,2.689,29.022,16.595,33.764l78.743,8.105
	c13.905,4.74,29.021-2.69,33.763-16.596l10.872-31.895c4.74-13.905-2.689-29.022-16.596-33.763l-67.296-41.677
	c-13.907-4.741-29.024,2.688-33.764,16.595L87.043,213.571z"/>
<circle fill="#FFFFFF" stroke="#FFFFFF" cx="133.919" cy="144.767" r="8.424"/>
<circle fill="#FFFFFF" stroke="#FFFFFF" cx="105.594" cy="227.858" r="8.424"/>
</svg>
