<?xml version="1.0" encoding="utf-8"?>
<!-- Generator: Adobe Illustrator 12.0.0, SVG Export Plug-In . SVG Version: 6.00 Build 51448)  -->
<!DOCTYPE svg PUBLIC "-//W3C//DTD SVG 1.1//EN" "http://www.w3.org/Graphics/SVG/1.1/DTD/svg11.dtd" [
	<!ENTITY ns_svg "http://www.w3.org/2000/svg">
	<!ENTITY ns_xlink "http://www.w3.org/1999/xlink">
]>
<svg  version="1.1" id="Layer_1" xmlns="&ns_svg;" xmlns:xlink="&ns_xlink;" width="319.509" height="319.902"
	 viewBox="0 0 319.509 319.902" overflow="visible" enable-background="new 0 0 319.509 319.902" xml:space="preserve">
<g>
	<linearGradient id="XMLID_2_" gradientUnits="userSpaceOnUse" x1="6.6914" y1="-8.2754" x2="396.6719" y2="422.2031">
		<stop  offset="0" style="stop-color:#A2DCDE"/>
		<stop  offset="0.1134" style="stop-color:#9CD3DB"/>
		<stop  offset="0.2837" style="stop-color:#8ABCD0"/>
		<stop  offset="0.4898" style="stop-color:#7098C1"/>
		<stop  offset="0.7239" style="stop-color:#4B6CAD"/>
		<stop  offset="0.9785" style="stop-color:#213A97"/>
		<stop  offset="1" style="stop-color:#1D3695"/>
	</linearGradient>
	<circle fill="url(#XMLID_2_)" cx="159.5" cy="160.402" r="159.5"/>
	<g>
		<path fill="#1F8DBF" d="M89.761,74.485c-2.346-9.446-0.782-16.868,7.822-23.615c12.514-12.145,27.375-9.446,42.235-16.193
			c6.257-2.699,9.385-8.771,15.643-10.795c13.295-5.398,27.375,2.699,39.106,6.747c12.515,4.723,35.196,8.771,32.85,24.291
			c-1.563,14.169-14.078,10.795-25.811,12.82c-20.335,3.374-11.731,14.843,4.693,18.892c15.643,4.723,43.8-11.47,51.62,10.121
			c2.346,8.097-7.038,15.519-14.86,17.543c-11.731,4.048-21.117-4.723-32.066-2.024c-7.821,1.35-8.604,7.422-17.99,6.073
			c-11.731-2.024-23.463-14.844-30.502-22.941c-4.693-5.397-8.604-14.844-17.989-12.82c-9.386,1.35-8.603,11.471-13.296,15.52
			c-11.731,10.121-32.849-1.35-48.492,4.723c-6.257,2.024-12.514,8.771-10.95,15.519c2.346,6.747,10.95,5.397,13.296,11.47
			c4.692,12.145-12.514,9.446-17.207,2.699c-4.692-6.073-3.911-29.014-1.564-35.086c3.128-8.771,36.76-15.518,23.463-27.664"/>
	</g>
	<g>
		<path fill="#217BB6" d="M196.806,188.959c3.661-6.688,7.848-10.95,14.416-12.724c10.678-4.061,15.09,1.998,24.064,2.053
			c3.711,0.114,7.847-2.83,11.23-2.289c7.722,0.457,9.225,9.717,11.781,15.72c2.53,6.659,9.299,15.862,0.9,25.039
			c-7.446,8.548-10.629,2.746-16.118,0.604c-9.451-3.8-11.683,6.004-7.321,13.377c3.733,7.574,22.385,5.512,14.964,21.521
			c-3.01,5.832-10.202,7.805-14.189,6.807c-6.467-0.857-5.839-9.176-11.354-10.66c-3.66-1.43-6.894,2.201-9.851-1.398
			c-3.535-4.717-1.854-16.293-0.651-23.496c0.803-4.803,3.861-11.949-0.725-13.405c-4.263-1.886-8.851,4.774-12.61,5.977
			c-9.401,3.003-11.981-10.46-20.932-11.172c-3.384-0.542-9.05,1.917-11.706,6.662c-2.357,4.974,1.604,6.632-0.428,11.177
			c-4.062,9.09-9.375,2.346-7.92-3.314c1.128-5.23,12.51-19.583,16.346-22.756c5.439-4.66,21.633,0.881,22.387-10.724"/>
	</g>
	<g>
		<path fill="#2481B9" d="M145.601,178.289c4.87,5.868,7.289,11.329,6.519,18.089c-0.158,11.423-7.416,13.293-10.772,21.616
			c-1.473,3.408-0.258,8.338-2.008,11.284c-3.269,7.011-12.432,4.997-18.954,5.163c-7.123-0.101-18.172,2.802-23.61-8.386
			c-5.204-10.071,1.362-10.894,5.375-15.208c7.014-7.387-1.279-13.072-9.74-11.733c-8.418,0.681-13.371,18.78-25.52,5.984
			c-4.313-4.946-3.499-12.36-1.102-15.699c3.178-5.696,10.681-2.049,14.093-6.63c2.677-2.876,0.492-7.22,4.929-8.643
			c5.687-1.55,15.831,4.277,22.084,8.049c4.169,2.516,9.687,7.991,12.729,4.265c3.323-3.269-1.179-9.987-0.911-13.926
			c0.671-9.846,14.138-7.286,18.096-15.345c1.751-2.946,1.552-9.119-1.882-13.337c-3.755-4.023-6.756-0.952-10.233-4.515
			c-6.955-7.124,1.272-9.579,5.999-6.142c4.447,2.975,13.599,18.843,15.135,23.578c2.329,6.773-8.787,19.787,1.724,24.763"/>
	</g>
</g>
<ellipse fill="none" stroke="#FFFFFF" cx="157.34" cy="159.492" rx="26.249" ry="158.992"/>
<path fill="none" stroke="#FFFFFF" d="M241.585,159.91c0,87.809-37.718,158.992-84.249,158.992
	c-46.525,0-84.244-71.184-84.244-158.992S110.811,0.918,157.336,0.918C203.867,0.918,241.585,72.101,241.585,159.91z"/>
<path fill="none" stroke="#FFFFFF" d="M294.58,159.91c0,87.809-61.222,158.992-136.748,158.992
	c-75.517,0-136.74-71.184-136.74-158.992S82.315,0.918,157.832,0.918C233.358,0.918,294.58,72.101,294.58,159.91z"/>
<g>
	
		<ellipse transform="matrix(0.0018 1 -1 0.0018 319.7004 -0.3327)" fill="none" stroke="#FFFFFF" cx="160.017" cy="159.967" rx="28.525" ry="158.992"/>
	<path fill="none" stroke="#FFFFFF" d="M159.759,251.52C71.951,251.674,0.696,210.809,0.607,160.241
		c-0.088-50.56,71.022-91.676,158.831-91.83c87.81-0.154,159.063,40.712,159.153,91.272
		C318.679,210.251,247.568,251.367,159.759,251.52z"/>
	<path fill="none" stroke="#FFFFFF" d="M159.86,309.112C72.052,309.266,0.751,242.858,0.607,160.781
		C0.463,78.713,71.531,12.055,159.339,11.901c87.808-0.154,159.108,66.255,159.252,148.322
		C318.734,242.3,247.669,308.958,159.86,309.112z"/>
</g>
</svg>
